<svg xmlns="http://www.w3.org/2000/svg" xmlns:xlink="http://www.w3.org/1999/xlink" width="158" zoomAndPan="magnify" viewBox="0 0 118.5 48.75" height="65" preserveAspectRatio="xMidYMid meet" version="1.0"><defs><g/><clipPath id="56f2bcb2fa"><path d="M 24.023438 4 L 85 4 L 85 22 L 24.023438 22 Z M 24.023438 4 " clip-rule="nonzero"/></clipPath></defs><path fill="#ffffff" d="M 60.09375 2.398438 C 49.628906 2.347656 40.628906 4.007812 39.332031 4.171875 C 37.253906 4.4375 36.574219 5.863281 36.574219 5.863281 L 32.550781 14.6875 C 33.261719 14.601562 34.175781 14.488281 35.265625 14.355469 C 35.507812 -2.382812 77.746094 4.082031 79.160156 5.023438 C 73.175781 3.070312 66.371094 2.425781 60.09375 2.398438 Z M 60.09375 2.398438 " fill-opacity="1" fill-rule="nonzero"/><g clip-path="url(#56f2bcb2fa)"><path fill="#ffffff" d="M 50.710938 4.730469 C 50.710938 4.730469 61.671875 2.847656 79.011719 5.957031 C 78.847656 5.792969 82.363281 8.738281 84.246094 14.789062 C 84.164062 14.707031 37.542969 10.699219 24.046875 21.25 C 24.292969 20.921875 29.851562 15.117188 46.539062 13.644531 C 63.222656 12.171875 83.101562 16.015625 80.726562 10.371094 C 78.355469 4.730469 65.433594 4.730469 50.710938 4.730469 Z M 50.710938 4.730469 " fill-opacity="1" fill-rule="nonzero"/></g><path fill="#ffffff" d="M 32.796875 14.605469 L 31.386719 15.914062 C 31.386719 15.914062 30.445312 14.707031 27.234375 14.828125 C 24.023438 14.953125 25.785156 11.394531 27.6875 11.355469 C 29.585938 11.3125 31.429688 10.984375 31.285156 11.96875 C 31.140625 12.949219 31.121094 14.238281 30.835938 14.359375 C 30.546875 14.480469 30.855469 11.558594 28.484375 12.007812 C 26.109375 12.457031 26.582031 13.417969 27.175781 13.644531 C 27.765625 13.867188 28.625 13.296875 29.34375 14.132812 C 30.058594 14.972656 32.164062 15.421875 32.796875 14.605469 Z M 32.796875 14.605469 " fill-opacity="1" fill-rule="nonzero"/><path fill="#ffffff" d="M 84.097656 14.75 L 85.511719 16.058594 C 85.511719 16.058594 86.449219 14.851562 89.660156 14.972656 C 92.871094 15.097656 91.113281 11.539062 89.210938 11.496094 C 87.308594 11.457031 85.46875 11.128906 85.613281 12.109375 C 85.753906 13.09375 85.777344 14.378906 86.0625 14.503906 C 86.347656 14.625 86.042969 11.703125 88.414062 12.152344 C 90.785156 12.601562 90.316406 13.5625 89.722656 13.789062 C 89.128906 14.011719 88.269531 13.441406 87.554688 14.277344 C 86.839844 15.117188 84.734375 15.566406 84.097656 14.75 Z M 84.097656 14.75 " fill-opacity="1" fill-rule="nonzero"/><path fill="#ffffff" d="M 61.078125 14.953125 C 53.132812 14.980469 44.441406 15.851562 34.851562 18.757812 L 34.867188 18.753906 C 49.617188 15.21875 66.664062 15.292969 78.902344 16.179688 C 78.859375 16.179688 78.839844 16.179688 78.800781 16.183594 C 77.160156 16.265625 76.164062 16.507812 73.984375 16.703125 C 71.800781 16.898438 69.605469 17.148438 67.917969 17.449219 C 67.074219 17.601562 66.359375 17.769531 65.828125 17.949219 C 65.5625 18.039062 65.34375 18.136719 65.175781 18.238281 C 65.007812 18.339844 64.882812 18.453125 64.832031 18.59375 C 64.78125 18.746094 64.847656 18.902344 64.972656 19.019531 C 80.484375 28.542969 91.0625 10.480469 93.613281 22.730469 C 93.734375 22.722656 93.851562 22.714844 93.96875 22.714844 C 93.445312 19.035156 91.550781 18.128906 90.808594 16.894531 C 90.578125 16.507812 90.269531 16.328125 89.957031 16.296875 C 89.644531 16.269531 89.332031 16.382812 89.054688 16.535156 C 87.027344 18.054688 84.554688 19.007812 82.191406 19.453125 C 79.726562 19.898438 76.941406 20.078125 74.34375 20.078125 C 61.832031 17.824219 76.558594 16.820312 82.835938 16.214844 C 76.222656 15.742188 69.023438 14.925781 61.078125 14.953125 Z M 61.078125 14.953125 " fill-opacity="1" fill-rule="nonzero"/><g fill="#ffffff" fill-opacity="1"><g transform="translate(14.788762, 34.255899)"><g><path d="M 11.453125 -8.171875 L 9.578125 0 L 6.96875 0 L 7.65625 -2.9375 C 7.707031 -3.175781 7.769531 -3.425781 7.84375 -3.6875 C 7.914062 -3.945312 7.984375 -4.179688 8.046875 -4.390625 C 8.117188 -4.609375 8.179688 -4.800781 8.234375 -4.96875 C 8.296875 -5.144531 8.347656 -5.285156 8.390625 -5.390625 L 8.4375 -5.53125 L 8.390625 -5.53125 L 5.609375 0 L 3.546875 0 L 3.3125 -5.515625 L 3.25 -5.515625 C 3.1875 -4.628906 3.0625 -3.769531 2.875 -2.9375 L 2.203125 0 L -0.203125 0 L 1.671875 -8.171875 L 5.375 -8.171875 L 5.53125 -3.453125 L 5.578125 -3.453125 L 7.875 -8.171875 Z M 11.453125 -8.171875 "/></g></g></g><g fill="#ffffff" fill-opacity="1"><g transform="translate(26.004578, 34.255899)"><g><path d="M 2.296875 -0.078125 C 1.484375 -0.335938 0.925781 -0.800781 0.625 -1.46875 C 0.320312 -2.144531 0.289062 -3.015625 0.53125 -4.078125 C 0.78125 -5.148438 1.210938 -6.019531 1.828125 -6.6875 C 2.441406 -7.363281 3.210938 -7.832031 4.140625 -8.09375 Z M 5.125 -6.328125 L 5.5625 -8.3125 L 5.90625 -8.3125 C 7.320312 -8.3125 8.328125 -7.953125 8.921875 -7.234375 C 9.523438 -6.515625 9.664062 -5.460938 9.34375 -4.078125 C 9.03125 -2.703125 8.40625 -1.65625 7.46875 -0.9375 C 6.539062 -0.21875 5.375 0.140625 3.96875 0.140625 C 3.8125 0.140625 3.695312 0.132812 3.625 0.125 L 4.078125 -1.84375 C 4.210938 -1.820312 4.328125 -1.8125 4.421875 -1.8125 C 4.984375 -1.8125 5.453125 -1.984375 5.828125 -2.328125 C 6.203125 -2.671875 6.457031 -3.128906 6.59375 -3.703125 L 6.75 -4.46875 C 6.882812 -5.039062 6.84375 -5.5 6.625 -5.84375 C 6.414062 -6.1875 6.03125 -6.359375 5.46875 -6.359375 C 5.375 -6.359375 5.257812 -6.347656 5.125 -6.328125 Z M 5.125 -6.328125 "/></g></g></g><g fill="#ffffff" fill-opacity="1"><g transform="translate(35.901586, 34.255899)"><g><path d="M 9.1875 -8.171875 L 8.71875 -6.078125 L 7.421875 -6.078125 L 7.890625 -8.171875 Z M 6.046875 -6.078125 L 4.640625 0 L 2.015625 0 L 3.421875 -6.078125 L 0.734375 -6.078125 L 1.21875 -8.171875 L 6.515625 -8.171875 Z M 6.046875 -6.078125 "/></g></g></g><g fill="#ffffff" fill-opacity="1"><g transform="translate(44.479784, 34.255899)"><g><path d="M 9.96875 -8.171875 L 8.84375 -3.296875 C 8.582031 -2.171875 8.03125 -1.316406 7.1875 -0.734375 C 6.351562 -0.148438 5.285156 0.140625 3.984375 0.140625 C 3.960938 0.140625 3.941406 0.140625 3.921875 0.140625 L 4.375 -1.8125 C 4.394531 -1.8125 4.410156 -1.8125 4.421875 -1.8125 C 4.890625 -1.8125 5.28125 -1.945312 5.59375 -2.21875 C 5.90625 -2.5 6.117188 -2.867188 6.234375 -3.328125 L 7.34375 -8.171875 Z M 2.578125 -0.015625 C 1.773438 -0.203125 1.210938 -0.570312 0.890625 -1.125 C 0.566406 -1.675781 0.507812 -2.398438 0.71875 -3.296875 L 1.84375 -8.171875 L 4.46875 -8.171875 Z M 2.578125 -0.015625 "/></g></g></g><g fill="#ffffff" fill-opacity="1"><g transform="translate(54.376792, 34.255899)"><g><path d="M 5.671875 -8.296875 C 6.609375 -8.253906 7.320312 -8.019531 7.8125 -7.59375 C 8.3125 -7.164062 8.476562 -6.566406 8.3125 -5.796875 L 8.28125 -5.65625 L 5.8125 -5.65625 L 5.828125 -5.703125 C 5.859375 -5.796875 5.867188 -5.882812 5.859375 -5.96875 C 5.847656 -6.0625 5.820312 -6.140625 5.78125 -6.203125 C 5.738281 -6.273438 5.671875 -6.335938 5.578125 -6.390625 C 5.492188 -6.441406 5.390625 -6.476562 5.265625 -6.5 Z M 4.28125 -8.234375 L 3.765625 -6 C 3.734375 -5.851562 3.773438 -5.726562 3.890625 -5.625 C 4.003906 -5.519531 4.164062 -5.441406 4.375 -5.390625 C 4.582031 -5.335938 4.820312 -5.28125 5.09375 -5.21875 C 5.363281 -5.15625 5.640625 -5.09375 5.921875 -5.03125 C 6.210938 -4.96875 6.488281 -4.875 6.75 -4.75 C 7.007812 -4.632812 7.234375 -4.492188 7.421875 -4.328125 C 7.609375 -4.160156 7.738281 -3.9375 7.8125 -3.65625 C 7.894531 -3.382812 7.898438 -3.066406 7.828125 -2.703125 C 7.640625 -1.878906 7.253906 -1.238281 6.671875 -0.78125 C 6.085938 -0.320312 5.363281 -0.0351562 4.5 0.078125 L 5.046875 -2.28125 C 5.078125 -2.414062 5.035156 -2.53125 4.921875 -2.625 C 4.804688 -2.726562 4.640625 -2.804688 4.421875 -2.859375 C 4.210938 -2.910156 3.972656 -2.96875 3.703125 -3.03125 C 3.429688 -3.101562 3.148438 -3.171875 2.859375 -3.234375 C 2.566406 -3.304688 2.289062 -3.40625 2.03125 -3.53125 C 1.78125 -3.65625 1.5625 -3.804688 1.375 -3.984375 C 1.1875 -4.171875 1.054688 -4.40625 0.984375 -4.6875 C 0.910156 -4.976562 0.921875 -5.316406 1.015625 -5.703125 C 1.179688 -6.441406 1.554688 -7.019531 2.140625 -7.4375 C 2.734375 -7.851562 3.445312 -8.117188 4.28125 -8.234375 Z M 3.53125 -1.734375 L 3.109375 0.125 C 2.753906 0.113281 2.429688 0.0820312 2.140625 0.03125 C 1.859375 -0.0078125 1.59375 -0.078125 1.34375 -0.171875 C 1.09375 -0.265625 0.878906 -0.382812 0.703125 -0.53125 C 0.535156 -0.675781 0.394531 -0.851562 0.28125 -1.0625 C 0.164062 -1.269531 0.109375 -1.515625 0.109375 -1.796875 C 0.109375 -2.078125 0.140625 -2.398438 0.203125 -2.765625 L 2.6875 -2.765625 C 2.613281 -2.503906 2.609375 -2.296875 2.671875 -2.140625 C 2.742188 -1.992188 2.847656 -1.890625 2.984375 -1.828125 C 3.117188 -1.773438 3.300781 -1.742188 3.53125 -1.734375 Z M 3.53125 -1.734375 "/></g></g></g><g fill="#ffffff" fill-opacity="1"><g transform="translate(62.95499, 34.255899)"><g/></g></g><g fill="#ffffff" fill-opacity="1"><g transform="translate(66.911418, 34.255899)"><g><path d="M 5.96875 -5.015625 C 6.144531 -5.160156 6.257812 -5.335938 6.3125 -5.546875 C 6.363281 -5.765625 6.332031 -5.945312 6.21875 -6.09375 C 6.113281 -6.238281 5.957031 -6.3125 5.75 -6.3125 L 5 -6.3125 L 5.4375 -8.171875 L 6.828125 -8.171875 C 7.703125 -8.171875 8.320312 -7.925781 8.6875 -7.4375 C 9.0625 -6.957031 9.171875 -6.367188 9.015625 -5.671875 C 8.898438 -5.171875 8.660156 -4.71875 8.296875 -4.3125 C 7.929688 -3.90625 7.472656 -3.609375 6.921875 -3.421875 L 7.953125 0 L 5 0 L 4.25 -2.984375 L 4.65625 -4.796875 L 5.40625 -4.796875 C 5.613281 -4.796875 5.800781 -4.867188 5.96875 -5.015625 Z M 2.171875 0 L -0.046875 0 L 1.828125 -8.171875 L 4.046875 -8.171875 Z M 2.171875 0 "/></g></g></g><g fill="#ffffff" fill-opacity="1"><g transform="translate(76.154963, 34.255899)"><g><path d="M 2.578125 0 L -0.046875 0 L 1.828125 -8.171875 L 4.453125 -8.171875 Z M 3.953125 0 L 4.40625 -1.953125 L 7.5625 -1.953125 L 7.109375 0 Z M 5.828125 -8.171875 L 8.890625 -8.171875 L 8.453125 -6.203125 L 5.390625 -6.203125 Z M 4.6875 -3.203125 L 5.125 -5.078125 L 7.546875 -5.078125 L 7.109375 -3.203125 Z M 4.6875 -3.203125 "/></g></g></g><g fill="#ffffff" fill-opacity="1"><g transform="translate(84.733164, 34.255899)"><g><path d="M 9.96875 -8.171875 L 8.09375 0 L 5.796875 0 L 4.296875 -2.375 L 5.21875 -6.40625 L 6.625 -4.140625 L 7.5625 -8.171875 Z M 3.28125 -3.96875 L 2.359375 0 L -0.046875 0 L 1.828125 -8.171875 L 4.125 -8.171875 L 4.21875 -8.03125 Z M 3.28125 -3.96875 "/></g></g></g><g fill="#ffffff" fill-opacity="1"><g transform="translate(94.630169, 34.255899)"><g><path d="M 9.1875 -8.171875 L 8.71875 -6.078125 L 7.421875 -6.078125 L 7.890625 -8.171875 Z M 6.046875 -6.078125 L 4.640625 0 L 2.015625 0 L 3.421875 -6.078125 L 0.734375 -6.078125 L 1.21875 -8.171875 L 6.515625 -8.171875 Z M 6.046875 -6.078125 "/></g></g></g><g fill="#ffffff" fill-opacity="1"><g transform="translate(36.953954, 44.258629)"><g><path d="M 2.28125 0.078125 C 1.882812 0.078125 1.53125 -0.00390625 1.21875 -0.171875 C 0.914062 -0.347656 0.675781 -0.585938 0.5 -0.890625 C 0.320312 -1.203125 0.234375 -1.5625 0.234375 -1.96875 C 0.234375 -2.375 0.320312 -2.726562 0.5 -3.03125 C 0.675781 -3.34375 0.914062 -3.582031 1.21875 -3.75 C 1.519531 -3.925781 1.867188 -4.015625 2.265625 -4.015625 C 2.597656 -4.015625 2.90625 -3.953125 3.1875 -3.828125 C 3.46875 -3.703125 3.703125 -3.519531 3.890625 -3.28125 C 4.078125 -3.050781 4.207031 -2.78125 4.28125 -2.46875 L 3.359375 -2.46875 C 3.285156 -2.6875 3.148438 -2.859375 2.953125 -2.984375 C 2.765625 -3.109375 2.546875 -3.171875 2.296875 -3.171875 C 2.078125 -3.171875 1.878906 -3.117188 1.703125 -3.015625 C 1.535156 -2.910156 1.398438 -2.769531 1.296875 -2.59375 C 1.203125 -2.414062 1.15625 -2.207031 1.15625 -1.96875 C 1.15625 -1.726562 1.203125 -1.519531 1.296875 -1.34375 C 1.398438 -1.164062 1.535156 -1.023438 1.703125 -0.921875 C 1.878906 -0.816406 2.078125 -0.765625 2.296875 -0.765625 C 2.554688 -0.765625 2.78125 -0.832031 2.96875 -0.96875 C 3.164062 -1.101562 3.304688 -1.28125 3.390625 -1.5 L 4.3125 -1.5 C 4.25 -1.1875 4.117188 -0.910156 3.921875 -0.671875 C 3.734375 -0.429688 3.5 -0.242188 3.21875 -0.109375 C 2.9375 0.015625 2.625 0.078125 2.28125 0.078125 Z M 2.28125 0.078125 "/></g></g></g><g fill="#ffffff" fill-opacity="1"><g transform="translate(42.313558, 44.258629)"><g><path d="M 0.046875 0 L 1.609375 -3.9375 L 2.484375 -3.9375 L 4.0625 0 L 3.09375 0 L 2.828125 -0.6875 L 1.265625 -0.6875 L 1 0 Z M 1.5 -1.390625 L 2.609375 -1.390625 L 2.046875 -2.828125 Z M 1.5 -1.390625 "/></g></g></g><g fill="#ffffff" fill-opacity="1"><g transform="translate(47.240148, 44.258629)"><g><path d="M 0.46875 0 L 0.46875 -3.9375 L 2.15625 -3.9375 C 2.457031 -3.9375 2.71875 -3.878906 2.9375 -3.765625 C 3.15625 -3.660156 3.320312 -3.503906 3.4375 -3.296875 C 3.5625 -3.097656 3.625 -2.859375 3.625 -2.578125 C 3.625 -2.296875 3.554688 -2.050781 3.421875 -1.84375 C 3.296875 -1.632812 3.113281 -1.472656 2.875 -1.359375 L 3.703125 0 L 2.65625 0 L 1.953125 -1.21875 L 1.359375 -1.21875 L 1.359375 0 Z M 1.359375 -1.984375 L 2.03125 -1.984375 C 2.257812 -1.984375 2.429688 -2.035156 2.546875 -2.140625 C 2.660156 -2.242188 2.71875 -2.390625 2.71875 -2.578125 C 2.71875 -2.765625 2.660156 -2.910156 2.546875 -3.015625 C 2.429688 -3.117188 2.257812 -3.171875 2.03125 -3.171875 L 1.359375 -3.171875 Z M 1.359375 -1.984375 "/></g></g></g><g fill="#ffffff" fill-opacity="1"><g transform="translate(52.020527, 44.258629)"><g/></g></g><g fill="#ffffff" fill-opacity="1"><g transform="translate(54.163477, 44.258629)"><g><path d="M 0.46875 0 L 0.46875 -3.9375 L 2.15625 -3.9375 C 2.457031 -3.9375 2.71875 -3.878906 2.9375 -3.765625 C 3.15625 -3.660156 3.320312 -3.503906 3.4375 -3.296875 C 3.5625 -3.097656 3.625 -2.859375 3.625 -2.578125 C 3.625 -2.296875 3.554688 -2.050781 3.421875 -1.84375 C 3.296875 -1.632812 3.113281 -1.472656 2.875 -1.359375 L 3.703125 0 L 2.65625 0 L 1.953125 -1.21875 L 1.359375 -1.21875 L 1.359375 0 Z M 1.359375 -1.984375 L 2.03125 -1.984375 C 2.257812 -1.984375 2.429688 -2.035156 2.546875 -2.140625 C 2.660156 -2.242188 2.71875 -2.390625 2.71875 -2.578125 C 2.71875 -2.765625 2.660156 -2.910156 2.546875 -3.015625 C 2.429688 -3.117188 2.257812 -3.171875 2.03125 -3.171875 L 1.359375 -3.171875 Z M 1.359375 -1.984375 "/></g></g></g><g fill="#ffffff" fill-opacity="1"><g transform="translate(58.943857, 44.258629)"><g><path d="M 0.46875 0 L 0.46875 -3.9375 L 3.0625 -3.9375 L 3.0625 -3.1875 L 1.359375 -3.1875 L 1.359375 -2.375 L 2.90625 -2.375 L 2.90625 -1.625 L 1.359375 -1.625 L 1.359375 -0.765625 L 3.125 -0.765625 L 3.125 0 Z M 0.46875 0 "/></g></g></g><g fill="#ffffff" fill-opacity="1"><g transform="translate(63.173131, 44.258629)"><g><path d="M 0.46875 0 L 0.46875 -3.9375 L 1.234375 -3.9375 L 2.96875 -1.546875 L 2.96875 -3.9375 L 3.859375 -3.9375 L 3.859375 0 L 3.09375 0 L 1.359375 -2.40625 L 1.359375 0 Z M 0.46875 0 "/></g></g></g><g fill="#ffffff" fill-opacity="1"><g transform="translate(68.324662, 44.258629)"><g><path d="M 1.421875 0 L 1.421875 -3.09375 L 0.171875 -3.09375 L 0.171875 -3.9375 L 3.5625 -3.9375 L 3.5625 -3.09375 L 2.3125 -3.09375 L 2.3125 0 Z M 1.421875 0 "/></g></g></g><g fill="#ffffff" fill-opacity="1"><g transform="translate(72.874477, 44.258629)"><g><path d="M 0.046875 0 L 1.609375 -3.9375 L 2.484375 -3.9375 L 4.0625 0 L 3.09375 0 L 2.828125 -0.6875 L 1.265625 -0.6875 L 1 0 Z M 1.5 -1.390625 L 2.609375 -1.390625 L 2.046875 -2.828125 Z M 1.5 -1.390625 "/></g></g></g><g fill="#ffffff" fill-opacity="1"><g transform="translate(77.801068, 44.258629)"><g><path d="M 0.46875 0 L 0.46875 -3.9375 L 1.359375 -3.9375 L 1.359375 -0.84375 L 3.09375 -0.84375 L 3.09375 0 Z M 0.46875 0 "/></g></g></g><path stroke-linecap="butt" transform="matrix(0.302189, -0.0000000000000003, 0.0000000000000003, 0.302189, 15.000809, 41.781532)" fill="none" stroke-linejoin="miter" d="M -0.00267627 1.498545 L 58.295935 1.498545 " stroke="#ffffff" stroke-width="3" stroke-opacity="1" stroke-miterlimit="4"/><path stroke-linecap="butt" transform="matrix(0.302189, -0.0000000000000003, 0.0000000000000003, 0.302189, 85.384364, 41.781532)" fill="none" stroke-linejoin="miter" d="M -0.00513375 1.498545 L 58.293477 1.498545 " stroke="#ffffff" stroke-width="3" stroke-opacity="1" stroke-miterlimit="4"/></svg>